<?xml version="1.0" encoding="UTF-8" standalone="no"?><!DOCTYPE svg PUBLIC "-//W3C//DTD SVG 1.1//EN" "http://www.w3.org/Graphics/SVG/1.1/DTD/svg11.dtd"><svg width="512px" height="512px" version="1.1" xmlns="http://www.w3.org/2000/svg" xmlns:xlink="http://www.w3.org/1999/xlink" xml:space="preserve" xmlns:serif="http://www.serif.com/" style="fill-rule:evenodd;clip-rule:evenodd;stroke-linecap:round;stroke-linejoin:round;stroke-miterlimit:1.5;"><g><g style="filter:url(#_Effect1);"><g><path d="M224.076,153.788C221.785,145.239 214.974,138.644 206.355,136.63C197.737,134.615 188.709,137.508 182.866,144.157L111.498,225.364C111.498,225.364 25.788,248.33 25.788,248.33C12.985,251.761 5.387,264.921 8.818,277.724L41.947,401.363C45.377,414.166 58.537,421.764 71.34,418.333L157.05,395.367C157.05,395.367 259.46,430.011 259.46,430.011C267.845,432.848 277.109,430.839 283.566,424.785C290.023,418.731 292.624,409.615 290.333,401.065L224.076,153.788Z" style="fill:url(#_Linear2);"/><path d="M224.076,153.788C221.785,145.239 214.974,138.644 206.355,136.63C197.737,134.615 188.709,137.508 182.866,144.157L111.498,225.364C111.498,225.364 25.788,248.33 25.788,248.33C12.985,251.761 5.387,264.921 8.818,277.724L41.947,401.363C45.377,414.166 58.537,421.764 71.34,418.333L157.05,395.367C157.05,395.367 259.46,430.011 259.46,430.011C267.845,432.848 277.109,430.839 283.566,424.785C290.023,418.731 292.624,409.615 290.333,401.065L224.076,153.788Z" style="fill:url(#_Linear3);"/><path d="M328.8,71.277C319.963,71.277 312.8,78.44 312.8,87.277L312.8,279.277C312.8,279.277 256,279.277 256,279.277C249.529,279.277 243.694,283.175 241.218,289.154C238.741,295.133 240.11,302.015 244.686,306.591L356.686,418.591C362.935,424.839 373.065,424.839 379.314,418.591L491.314,306.591C495.89,302.015 497.259,295.133 494.782,289.154C492.306,283.175 486.471,279.277 480,279.277L423.2,279.277C423.2,230.548 423.2,87.277 423.2,87.277C423.2,78.44 416.037,71.277 407.2,71.277L328.8,71.277Z" style="fill:url(#_Linear4);"/><path d="M328.8,71.277C319.963,71.277 312.8,78.44 312.8,87.277L312.8,279.277C312.8,279.277 256,279.277 256,279.277C249.529,279.277 243.694,283.175 241.218,289.154C238.741,295.133 240.11,302.015 244.686,306.591L356.686,418.591C362.935,424.839 373.065,424.839 379.314,418.591L491.314,306.591C495.89,302.015 497.259,295.133 494.782,289.154C492.306,283.175 486.471,279.277 480,279.277L423.2,279.277C423.2,230.548 423.2,87.277 423.2,87.277C423.2,78.44 416.037,71.277 407.2,71.277L328.8,71.277Z" style="fill:url(#_Linear5);"/></g></g><path d="M224.076,153.788C221.785,145.239 214.974,138.644 206.355,136.63C197.737,134.615 188.709,137.508 182.866,144.157L111.498,225.364C111.498,225.364 25.788,248.33 25.788,248.33C12.985,251.761 5.387,264.921 8.818,277.724L41.947,401.363C45.377,414.166 58.537,421.764 71.34,418.333L157.05,395.367C157.05,395.367 259.46,430.011 259.46,430.011C267.845,432.848 277.109,430.839 283.566,424.785C290.023,418.731 292.624,409.615 290.333,401.065L224.076,153.788Z" style="fill:url(#_Linear6);"/><path d="M224.076,153.788C221.785,145.239 214.974,138.644 206.355,136.63C197.737,134.615 188.709,137.508 182.866,144.157L111.498,225.364C111.498,225.364 25.788,248.33 25.788,248.33C12.985,251.761 5.387,264.921 8.818,277.724L41.947,401.363C45.377,414.166 58.537,421.764 71.34,418.333L157.05,395.367C157.05,395.367 259.46,430.011 259.46,430.011C267.845,432.848 277.109,430.839 283.566,424.785C290.023,418.731 292.624,409.615 290.333,401.065L224.076,153.788Z" style="fill:url(#_Linear7);"/><path d="M328.8,71.277C319.963,71.277 312.8,78.44 312.8,87.277L312.8,279.277C312.8,279.277 256,279.277 256,279.277C249.529,279.277 243.694,283.175 241.218,289.154C238.741,295.133 240.11,302.015 244.686,306.591L356.686,418.591C362.935,424.839 373.065,424.839 379.314,418.591L491.314,306.591C495.89,302.015 497.259,295.133 494.782,289.154C492.306,283.175 486.471,279.277 480,279.277L423.2,279.277C423.2,230.548 423.2,87.277 423.2,87.277C423.2,78.44 416.037,71.277 407.2,71.277L328.8,71.277Z" style="fill:url(#_Linear8);"/><path d="M328.8,71.277C319.963,71.277 312.8,78.44 312.8,87.277L312.8,279.277C312.8,279.277 256,279.277 256,279.277C249.529,279.277 243.694,283.175 241.218,289.154C238.741,295.133 240.11,302.015 244.686,306.591L356.686,418.591C362.935,424.839 373.065,424.839 379.314,418.591L491.314,306.591C495.89,302.015 497.259,295.133 494.782,289.154C492.306,283.175 486.471,279.277 480,279.277L423.2,279.277C423.2,230.548 423.2,87.277 423.2,87.277C423.2,78.44 416.037,71.277 407.2,71.277L328.8,71.277Z" style="fill:url(#_Linear9);"/></g><g><clipPath id="_clip10"><path d="M512,0L0,0L0,512C0,300 400,100 512,100L512,0Z"/></clipPath><g clip-path="url(#_clip10)"><g opacity="0.05"><g transform="matrix(0.927289,-0.248466,0.331288,1.23639,-64.0577,98.4781)"><path d="M250,100L150,150L50,150L50,250L150,250L250,300L250,100Z" style="fill:white;stroke:white;stroke-width:42.43px;"/></g><g transform="matrix(6.96644e-17,1.13771,-1.44921,8.87386e-17,626.998,-236.768)"><path d="M284.823,205.766L284.823,151.667L467.648,151.667L467.648,101.433L566.091,178.717L467.648,256L467.648,205.766L284.823,205.766Z" style="fill:white;stroke:white;stroke-width:24.56px;"/></g></g></g></g><defs><filter id="_Effect1" filterUnits="userSpaceOnUse" x="-40.006" y="23.277" width="584.006" height="456.001"><feGaussianBlur in="SourceGraphic" stdDeviation="8"/></filter><linearGradient id="_Linear2" x1="0" y1="0" x2="1" y2="0" gradientUnits="userSpaceOnUse" gradientTransform="matrix(238.489,248.698,-248.698,238.489,52.6626,182.58)"><stop offset="0" style="stop-color:rgb(166,129,228);stop-opacity:1"/><stop offset="0.47" style="stop-color:rgb(85,49,145);stop-opacity:1"/><stop offset="1" style="stop-color:rgb(61,26,120);stop-opacity:1"/></linearGradient><linearGradient id="_Linear3" x1="0" y1="0" x2="1" y2="0" gradientUnits="userSpaceOnUse" gradientTransform="matrix(238.489,248.698,-248.698,238.489,52.6626,182.58)"><stop offset="0" style="stop-color:rgb(166,129,228);stop-opacity:1"/><stop offset="0.47" style="stop-color:rgb(85,49,145);stop-opacity:1"/><stop offset="1" style="stop-color:rgb(61,26,120);stop-opacity:1"/></linearGradient><linearGradient id="_Linear4" x1="0" y1="0" x2="1" y2="0" gradientUnits="userSpaceOnUse" gradientTransform="matrix(2.15538e-14,352,-352,2.15538e-14,368,71.277)"><stop offset="0" style="stop-color:rgb(123,173,226);stop-opacity:1"/><stop offset="0.48" style="stop-color:rgb(102,160,221);stop-opacity:1"/><stop offset="1" style="stop-color:rgb(46,125,209);stop-opacity:1"/></linearGradient><linearGradient id="_Linear5" x1="0" y1="0" x2="1" y2="0" gradientUnits="userSpaceOnUse" gradientTransform="matrix(2.15538e-14,352,-352,2.15538e-14,368,71.277)"><stop offset="0" style="stop-color:rgb(123,173,226);stop-opacity:1"/><stop offset="0.48" style="stop-color:rgb(102,160,221);stop-opacity:1"/><stop offset="1" style="stop-color:rgb(46,125,209);stop-opacity:1"/></linearGradient><linearGradient id="_Linear6" x1="0" y1="0" x2="1" y2="0" gradientUnits="userSpaceOnUse" gradientTransform="matrix(238.489,248.698,-248.698,238.489,52.6626,182.58)"><stop offset="0" style="stop-color:rgb(166,129,228);stop-opacity:1"/><stop offset="0.47" style="stop-color:rgb(85,49,145);stop-opacity:1"/><stop offset="1" style="stop-color:rgb(61,26,120);stop-opacity:1"/></linearGradient><linearGradient id="_Linear7" x1="0" y1="0" x2="1" y2="0" gradientUnits="userSpaceOnUse" gradientTransform="matrix(238.489,248.698,-248.698,238.489,52.6626,182.58)"><stop offset="0" style="stop-color:rgb(166,129,228);stop-opacity:1"/><stop offset="0.47" style="stop-color:rgb(85,49,145);stop-opacity:1"/><stop offset="1" style="stop-color:rgb(61,26,120);stop-opacity:1"/></linearGradient><linearGradient id="_Linear8" x1="0" y1="0" x2="1" y2="0" gradientUnits="userSpaceOnUse" gradientTransform="matrix(2.15538e-14,352,-352,2.15538e-14,368,71.277)"><stop offset="0" style="stop-color:rgb(123,173,226);stop-opacity:1"/><stop offset="0.48" style="stop-color:rgb(102,160,221);stop-opacity:1"/><stop offset="1" style="stop-color:rgb(46,125,209);stop-opacity:1"/></linearGradient><linearGradient id="_Linear9" x1="0" y1="0" x2="1" y2="0" gradientUnits="userSpaceOnUse" gradientTransform="matrix(2.15538e-14,352,-352,2.15538e-14,368,71.277)"><stop offset="0" style="stop-color:rgb(123,173,226);stop-opacity:1"/><stop offset="0.48" style="stop-color:rgb(102,160,221);stop-opacity:1"/><stop offset="1" style="stop-color:rgb(46,125,209);stop-opacity:1"/></linearGradient></defs></svg>